<?xml version="1.0" encoding="UTF-8" standalone="no"?>
<!-- Generator: Adobe Illustrator 21.0.2, SVG Export Plug-In . SVG Version: 6.00 Build 0)  -->

<svg
   xmlns:dc="http://purl.org/dc/elements/1.1/"
   xmlns:cc="http://creativecommons.org/ns#"
   xmlns:rdf="http://www.w3.org/1999/02/22-rdf-syntax-ns#"
   xmlns:svg="http://www.w3.org/2000/svg"
   xmlns="http://www.w3.org/2000/svg"
   xmlns:xlink="http://www.w3.org/1999/xlink"
   xmlns:sodipodi="http://sodipodi.sourceforge.net/DTD/sodipodi-0.dtd"
   xmlns:inkscape="http://www.inkscape.org/namespaces/inkscape"
   version="1.1"
   x="0px"
   y="0px"
   viewBox="0 0 513.7 350.4"
   style="enable-background:new 0 0 513.7 350.4;"
   xml:space="preserve"
   id="svg126"
   sodipodi:docname="Api_Plus- Logo4colers_01.svg"
   inkscape:version="0.92.5 (2060ec1f9f, 2020-04-08)"><metadata
   id="metadata132"><rdf:RDF><cc:Work
       rdf:about=""><dc:format>image/svg+xml</dc:format><dc:type
         rdf:resource="http://purl.org/dc/dcmitype/StillImage" /></cc:Work></rdf:RDF></metadata><defs
   id="defs130" /><sodipodi:namedview
   pagecolor="#ffffff"
   bordercolor="#666666"
   borderopacity="1"
   objecttolerance="10"
   gridtolerance="10"
   guidetolerance="10"
   inkscape:pageopacity="0"
   inkscape:pageshadow="2"
   inkscape:window-width="1848"
   inkscape:window-height="1016"
   id="namedview128"
   showgrid="false"
   inkscape:zoom="0.95249545"
   inkscape:cx="105.45196"
   inkscape:cy="39.233432"
   inkscape:window-x="72"
   inkscape:window-y="27"
   inkscape:window-maximized="1"
   inkscape:current-layer="g104" />
<style
   type="text/css"
   id="style2">
	.st0{display:none;}
	.st1{display:inline;fill:#161C2D;}
	.st2{display:inline;fill:#F2F2F2;}
	.st3{display:inline;}
	.st4{display:inline;fill:#FFFFFF;stroke:#7F7F7F;stroke-miterlimit:10;}
	.st5{fill:#FFFFFF;}
	.st6{fill:#999999;}
	.st7{clip-path:url(#SVGID_2_);fill:#56B8B3;}
	.st8{fill:#F2F2F2;}
	.st9{fill:#4D4D4D;}
	.st10{clip-path:url(#SVGID_4_);fill:#56B8B3;}
	.st11{clip-path:url(#SVGID_6_);fill:#56B8B3;}
	.st12{fill:#F1F2E0;}
	.st13{opacity:0.1;}
	.st14{fill:url(#SVGID_7_);}
	.st15{fill:url(#SVGID_8_);}
	.st16{fill:url(#SVGID_9_);}
	.st17{clip-path:url(#SVGID_11_);fill:#56B8B3;}
	.st18{fill:#41465F;}
	.st19{fill:url(#SVGID_12_);}
	.st20{fill:url(#SVGID_13_);}
	.st21{fill:url(#SVGID_14_);}
	.st22{fill:none;stroke:#ED1C24;stroke-miterlimit:10;}
	.st23{fill:none;stroke:#ED1C24;stroke-miterlimit:10;stroke-dasharray:2,5;}
</style>
<g
   id="BG"
   class="st0">
	<rect
   x="-164.1"
   y="-121.7"
   class="st1"
   width="841.9"
   height="595.3"
   id="rect4" />
</g>
<g
   id="Logo">
	<g
   id="g108">
		<g
   id="g17">
			<g
   id="g15">
				<defs
   id="defs8">
					<polygon
   id="SVGID_5_"
   points="259.9,194.4 259.9,194.4 259.9,194.4      " />
				</defs>
				<clipPath
   id="SVGID_2_">
					<use
   xlink:href="#SVGID_5_"
   style="overflow:visible;"
   id="use10" />
				</clipPath>
				<rect
   x="259.9"
   y="194.4"
   class="st7"
   width="0"
   height="0"
   clip-path="url(#SVGID_2_)"
   id="rect13" />
			</g>
		</g>
		<g
   id="g75">
			<g
   id="g59">
				<path
   class="st12"
   d="M138.2,282.4l-5.8,11.1h1.7l1.4-2.8h6.7l1.4,2.8h1.7l-5.8-11.1H138.2z M136.4,289.2l2.6-5l2.6,5H136.4z"
   id="path19" />
				<path
   class="st12"
   d="M157.1,283.2c-0.4-0.3-0.9-0.5-1.5-0.7c-0.6-0.1-1.3-0.2-2.2-0.2h-6v11.1h1.6v-4h4.4      c0.8,0,1.6-0.1,2.2-0.2c0.6-0.1,1.1-0.4,1.5-0.7c0.4-0.3,0.7-0.7,0.9-1.1c0.2-0.4,0.3-0.9,0.3-1.5c0-0.6-0.1-1.1-0.3-1.5      C157.8,283.9,157.5,283.5,157.1,283.2z M153.8,287.9c-0.3,0-0.6,0-0.9,0h-3.8v-4.1h3.8c0.7,0,1.3,0,1.8,0.1      c0.5,0.1,0.9,0.2,1.2,0.3c0.3,0.1,0.5,0.3,0.6,0.6c0.1,0.3,0.2,0.6,0.2,1.1c0,0.4-0.1,0.7-0.2,0.9c-0.1,0.2-0.3,0.4-0.4,0.6      c-0.2,0.1-0.4,0.3-0.6,0.3c-0.3,0.1-0.5,0.1-0.8,0.2C154.4,287.9,154.1,287.9,153.8,287.9z"
   id="path21" />
				<rect
   x="161.1"
   y="282.4"
   class="st12"
   width="1.6"
   height="11.1"
   id="rect23" />
				<path
   class="st12"
   d="M182.6,283.2c-0.4-0.3-0.9-0.5-1.5-0.7c-0.6-0.1-1.3-0.2-2.2-0.2h-6v11.1h1.6v-4h4.4      c0.8,0,1.6-0.1,2.2-0.2c0.6-0.1,1.1-0.4,1.5-0.7c0.4-0.3,0.7-0.7,0.9-1.1c0.2-0.4,0.3-0.9,0.3-1.5c0-0.6-0.1-1.1-0.3-1.5      C183.3,283.9,183,283.5,182.6,283.2z M179.2,287.9c-0.3,0-0.6,0-0.9,0h-3.8v-4.1h3.8c0.7,0,1.3,0,1.8,0.1      c0.5,0.1,0.9,0.2,1.2,0.3c0.3,0.1,0.5,0.3,0.6,0.6c0.1,0.3,0.2,0.6,0.2,1.1c0,0.4-0.1,0.7-0.2,0.9c-0.1,0.2-0.3,0.4-0.4,0.6      c-0.2,0.1-0.4,0.3-0.6,0.3c-0.3,0.1-0.5,0.1-0.8,0.2C179.8,287.9,179.5,287.9,179.2,287.9z"
   id="path25" />
				<path
   class="st12"
   d="M189.5,291.8c-0.4-0.1-0.7-0.2-0.9-0.4c-0.2-0.2-0.3-0.4-0.4-0.7c-0.1-0.3-0.1-0.7-0.1-1.2v-7.1h-1.6v7.3      c0,0.6,0.1,1.2,0.2,1.6c0.1,0.5,0.4,0.9,0.8,1.2c0.4,0.3,0.8,0.5,1.4,0.7c0.6,0.1,1.3,0.2,2.1,0.2h5.2v-1.5h-5      C190.5,291.9,189.9,291.9,189.5,291.8z"
   id="path27" />
				<path
   class="st12"
   d="M208.4,290.1c-0.3,0.2-0.6,0.4-0.9,0.7c-0.4,0.3-0.9,0.5-1.3,0.7c-0.5,0.2-1,0.4-1.6,0.5      c-1,0.3-2.2,0.3-3,0.1c-0.4-0.1-0.7-0.2-0.9-0.4c-0.2-0.2-0.4-0.4-0.6-0.8c-0.1-0.3-0.2-0.8-0.2-1.3v-7.2h-1.6v7.4      c0,0.6,0.1,1.1,0.3,1.6c0.2,0.5,0.5,0.9,0.9,1.2c0.4,0.3,0.9,0.6,1.4,0.8c0.6,0.2,1.2,0.3,1.9,0.3c0.6,0,1.3-0.1,1.8-0.2      c0.6-0.1,1.1-0.3,1.6-0.5c0.5-0.2,1-0.4,1.4-0.7c0.2-0.1,0.5-0.3,0.7-0.4v1.6h1.6v-11.1h-1.6V290.1z"
   id="path29" />
				<path
   class="st12"
   d="M222.5,288.6c-0.3-0.2-0.7-0.4-1.1-0.6c-0.4-0.2-0.8-0.3-1.2-0.4c-0.4-0.1-0.9-0.3-1.3-0.4      c-0.4-0.1-0.9-0.2-1.3-0.3c-0.4-0.1-0.8-0.2-1.2-0.3c-0.4-0.1-0.7-0.3-0.9-0.4c-0.2-0.1-0.4-0.3-0.6-0.5      c-0.1-0.1-0.2-0.3-0.2-0.5c0-0.2,0.1-0.5,0.2-0.6c0.1-0.2,0.4-0.3,0.6-0.5c0.3-0.1,0.7-0.2,1.1-0.3c0.5-0.1,1-0.1,1.6-0.1      c0.5,0,0.9,0,1.3,0.1c0.4,0.1,0.8,0.1,1.1,0.2c0.3,0.1,0.6,0.2,0.8,0.3c0.3,0.1,0.5,0.2,0.7,0.3l0.4,0.2v-1.8l-0.2-0.1      c-0.3-0.1-0.7-0.2-1-0.2c-0.3-0.1-0.7-0.1-1-0.2c-0.3-0.1-0.7-0.1-1.1-0.1c-0.7-0.1-1.5-0.1-2.3,0c-0.4,0-0.8,0.1-1.1,0.2      c-0.4,0.1-0.7,0.2-1,0.3c-0.3,0.1-0.6,0.3-0.9,0.5c-0.3,0.2-0.5,0.5-0.6,0.8c-0.2,0.3-0.2,0.7-0.2,1.1c0,0.4,0.1,0.8,0.3,1.1      c0.2,0.3,0.4,0.6,0.7,0.8c0.3,0.2,0.7,0.4,1.1,0.6c0.4,0.2,0.8,0.3,1.2,0.4c0.4,0.1,0.9,0.2,1.3,0.3c0.4,0.1,0.9,0.2,1.3,0.3      c0.4,0.1,0.8,0.2,1.2,0.3c0.4,0.1,0.7,0.3,0.9,0.4c0.2,0.1,0.4,0.3,0.6,0.5c0.1,0.2,0.2,0.4,0.2,0.6c0,0.3-0.1,0.5-0.2,0.7      c-0.2,0.2-0.4,0.4-0.7,0.5c-0.3,0.1-0.8,0.3-1.2,0.3c-0.5,0.1-1,0.1-1.6,0.1c-0.8,0-1.6-0.1-2.4-0.2c-0.7-0.1-1.4-0.4-2.1-0.8      l-0.5-0.3v1.9l0.2,0.1c0.7,0.2,1.4,0.4,2.2,0.6c0.8,0.1,1.6,0.2,2.5,0.2c0.4,0,0.8,0,1.2-0.1c0.4,0,0.8-0.1,1.2-0.2      c0.4-0.1,0.8-0.2,1.1-0.3c0.4-0.2,0.7-0.3,1-0.6c0.3-0.2,0.5-0.5,0.7-0.8c0.2-0.3,0.3-0.7,0.3-1.2c0-0.4-0.1-0.8-0.3-1.1      C223.1,289.1,222.9,288.8,222.5,288.6z"
   id="path31" />
				<path
   class="st12"
   d="M243,283.2c-0.4-0.3-0.9-0.5-1.5-0.7c-0.6-0.1-1.3-0.2-2.2-0.2h-6v11.1h1.6v-4h4.4c0.8,0,1.6-0.1,2.2-0.2      c0.6-0.1,1.1-0.4,1.5-0.7c0.4-0.3,0.7-0.7,0.9-1.1c0.2-0.4,0.3-0.9,0.3-1.5c0-0.6-0.1-1.1-0.3-1.5      C243.7,283.9,243.4,283.5,243,283.2z M239.6,287.9c-0.3,0-0.6,0-0.9,0h-3.8v-4.1h3.8c0.7,0,1.3,0,1.8,0.1      c0.5,0.1,0.9,0.2,1.2,0.3c0.3,0.1,0.5,0.3,0.6,0.6c0.1,0.3,0.2,0.6,0.2,1.1c0,0.4-0.1,0.7-0.2,0.9c-0.1,0.2-0.3,0.4-0.4,0.6      c-0.2,0.1-0.4,0.3-0.6,0.3c-0.3,0.1-0.5,0.1-0.8,0.2C240.2,287.9,239.9,287.9,239.6,287.9z"
   id="path33" />
				<path
   class="st12"
   d="M258,283.5c-0.6-0.5-1.4-0.8-2.2-1c-0.8-0.2-1.7-0.3-2.7-0.3c-0.6,0-1.3,0-1.8,0.1      c-0.6,0.1-1.1,0.2-1.7,0.5c-0.5,0.2-1,0.5-1.4,0.8c-0.4,0.3-0.8,0.7-1.1,1.1c-0.3,0.4-0.5,0.9-0.7,1.5c-0.2,0.5-0.2,1.1-0.2,1.8      c0,1,0.2,1.8,0.5,2.6c0.4,0.7,0.9,1.3,1.5,1.8c0.6,0.5,1.4,0.8,2.2,1c0.8,0.2,1.7,0.3,2.7,0.3c1,0,1.9-0.1,2.7-0.3      c0.8-0.2,1.6-0.6,2.2-1c0.6-0.5,1.1-1.1,1.5-1.8c0.4-0.7,0.5-1.6,0.5-2.6c0-1-0.2-1.8-0.5-2.6C259.1,284.6,258.6,284,258,283.5z       M253.1,292.2c-0.9,0-1.7-0.1-2.4-0.3c-0.7-0.2-1.2-0.5-1.7-0.8c-0.4-0.4-0.8-0.8-1-1.3c-0.2-0.5-0.3-1.1-0.3-1.8      c0-0.7,0.1-1.3,0.3-1.8c0.2-0.5,0.6-1,1-1.3c0.4-0.4,1-0.6,1.7-0.8c0.7-0.2,1.5-0.3,2.4-0.3c0.9,0,1.7,0.1,2.4,0.3      c0.7,0.2,1.2,0.5,1.7,0.8c0.4,0.4,0.8,0.8,1,1.3c0.2,0.5,0.3,1.1,0.3,1.8c0,0.7-0.1,1.3-0.3,1.8c-0.2,0.5-0.6,1-1,1.3      c-0.4,0.4-1,0.6-1.7,0.8C254.8,292.1,254,292.2,253.1,292.2z"
   id="path35" />
				<polygon
   class="st12"
   points="275.8,291.5 272.3,282.4 270.6,282.4 267.1,291.5 263.4,282.4 261.7,282.4 266.1,293.4 268,293.4       271.4,284.5 274.9,293.4 276.7,293.4 281.2,282.4 279.5,282.4     "
   id="polygon37" />
				<path
   class="st12"
   d="M293.9,283.8c-0.5-0.5-1.2-0.9-2-1.2c-0.8-0.3-1.7-0.4-2.6-0.4c-0.9,0-1.8,0.1-2.6,0.4      c-0.8,0.3-1.5,0.7-2,1.2c-0.6,0.5-1,1.1-1.3,1.8c-0.3,0.7-0.5,1.5-0.5,2.3c0,0.9,0.2,1.7,0.5,2.4c0.3,0.7,0.8,1.3,1.4,1.8      c0.6,0.5,1.4,0.9,2.2,1.1c0.9,0.3,1.8,0.4,2.9,0.4c0.4,0,0.9,0,1.2,0c0.4,0,0.7-0.1,1.1-0.1c0.4-0.1,0.7-0.1,1.1-0.2      c0.4-0.1,0.8-0.2,1.2-0.3l0.2-0.1v-1.9l-0.5,0.3c-0.2,0.1-0.4,0.2-0.7,0.3c-0.3,0.1-0.7,0.2-1,0.3c-0.4,0.1-0.8,0.2-1.2,0.2      c-0.4,0.1-0.8,0.1-1.2,0.1c-0.9,0-1.8-0.1-2.5-0.3c-0.7-0.2-1.3-0.5-1.7-0.8c-0.5-0.3-0.8-0.7-1.1-1.2c-0.2-0.4-0.3-0.8-0.4-1.3      h11.1V288c0-0.9-0.1-1.7-0.4-2.4C294.8,284.9,294.4,284.3,293.9,283.8z M289.3,283.7c0.8,0,1.5,0.1,2.1,0.3      c0.6,0.2,1.1,0.5,1.4,0.8c0.4,0.3,0.7,0.7,0.8,1.2c0.1,0.4,0.2,0.7,0.3,1.1h-9.5c0.1-0.4,0.2-0.7,0.4-1.1      c0.2-0.4,0.5-0.8,0.9-1.2c0.4-0.3,0.9-0.6,1.5-0.8C287.8,283.8,288.5,283.7,289.3,283.7z"
   id="path39" />
				<path
   class="st12"
   d="M306.3,282.2c-0.1,0-0.2,0-0.3,0c-0.1,0-0.3,0-0.4,0c-0.1,0-0.3,0-0.5,0c-0.5,0-1.1,0.1-1.6,0.2      c-0.5,0.1-1,0.3-1.4,0.5c-0.5,0.2-0.9,0.5-1.3,0.8c-0.2,0.2-0.4,0.3-0.6,0.5v-1.7h-1.6v11.1h1.6V286c0.3-0.3,0.6-0.6,0.9-0.9      c0.3-0.3,0.7-0.6,1.1-0.8c0.4-0.2,0.9-0.4,1.3-0.5c0.5-0.1,1-0.2,1.5-0.2c0.4,0,0.7,0,0.9,0.1c0.2,0.1,0.4,0.1,0.6,0.1l0.4,0.1      v-1.6l-0.2,0C306.5,282.2,306.4,282.2,306.3,282.2z"
   id="path41" />
				<path
   class="st12"
   d="M325.5,282.8c-0.4-0.1-0.8-0.2-1.1-0.3c-0.4-0.1-0.8-0.2-1.3-0.2c-0.4-0.1-0.9-0.1-1.4-0.1      c-0.6,0-1.3,0.1-1.8,0.2c-0.6,0.1-1.1,0.3-1.7,0.5c-0.5,0.2-1,0.5-1.4,0.8c-0.4,0.3-0.8,0.7-1.1,1.1c-0.3,0.4-0.5,0.9-0.7,1.4      c-0.2,0.5-0.2,1.1-0.2,1.7c0,0.6,0.1,1.2,0.2,1.7c0.2,0.5,0.4,1,0.7,1.4c0.3,0.4,0.7,0.8,1.1,1.1c0.4,0.3,0.9,0.6,1.4,0.8      c0.5,0.2,1.1,0.4,1.7,0.5c0.6,0.1,1.2,0.2,1.8,0.2c0.5,0,1,0,1.4-0.1c0.4-0.1,0.9-0.1,1.3-0.2c0.4-0.1,0.8-0.2,1.1-0.3      c0.4-0.1,0.7-0.3,1.1-0.4l0.2-0.1v-1.9l-0.5,0.3c-0.3,0.2-0.5,0.3-0.9,0.5c-0.3,0.2-0.7,0.3-1,0.4c-0.4,0.1-0.8,0.2-1.2,0.3      c-0.4,0.1-0.9,0.1-1.4,0.1c-1,0-1.8-0.1-2.5-0.3c-0.7-0.2-1.3-0.5-1.7-0.9c-0.4-0.4-0.8-0.8-1-1.3c-0.2-0.5-0.3-1.1-0.3-1.8      c0-0.7,0.1-1.3,0.3-1.8c0.2-0.5,0.5-1,1-1.3c0.4-0.4,1-0.7,1.7-0.9c0.7-0.2,1.6-0.3,2.5-0.3c0.5,0,0.9,0,1.4,0.1      c0.4,0.1,0.8,0.2,1.2,0.3c0.4,0.1,0.7,0.3,1,0.4c0.3,0.2,0.6,0.3,0.9,0.5l0.5,0.3v-1.9l-0.2-0.1      C326.2,283.1,325.8,282.9,325.5,282.8z"
   id="path43" />
				<path
   class="st12"
   d="M340.9,283.5c-0.6-0.5-1.4-0.8-2.2-1c-0.8-0.2-1.7-0.3-2.7-0.3c-0.6,0-1.3,0-1.8,0.1      c-0.6,0.1-1.1,0.2-1.7,0.5c-0.5,0.2-1,0.5-1.4,0.8c-0.4,0.3-0.8,0.7-1.1,1.1c-0.3,0.4-0.5,0.9-0.7,1.5c-0.2,0.5-0.2,1.1-0.2,1.8      c0,1,0.2,1.8,0.5,2.6c0.4,0.7,0.9,1.3,1.5,1.8c0.6,0.5,1.4,0.8,2.2,1c0.8,0.2,1.7,0.3,2.7,0.3c1,0,1.9-0.1,2.7-0.3      c0.8-0.2,1.6-0.6,2.2-1c0.6-0.5,1.1-1.1,1.5-1.8c0.4-0.7,0.5-1.6,0.5-2.6c0-1-0.2-1.8-0.5-2.6C342,284.6,341.5,284,340.9,283.5z       M336,292.2c-0.9,0-1.7-0.1-2.4-0.3c-0.7-0.2-1.2-0.5-1.7-0.8c-0.4-0.4-0.8-0.8-1-1.3c-0.2-0.5-0.3-1.1-0.3-1.8      c0-0.7,0.1-1.3,0.3-1.8c0.2-0.5,0.6-1,1-1.3c0.4-0.4,1-0.6,1.7-0.8c0.7-0.2,1.5-0.3,2.4-0.3c0.9,0,1.7,0.1,2.4,0.3      c0.7,0.2,1.2,0.5,1.7,0.8c0.4,0.4,0.8,0.8,1,1.3c0.2,0.5,0.3,1.1,0.3,1.8c0,0.7-0.1,1.3-0.3,1.8c-0.2,0.5-0.6,1-1,1.3      c-0.4,0.4-1,0.6-1.7,0.8C337.7,292.1,336.9,292.2,336,292.2z"
   id="path45" />
				<rect
   x="344.9"
   y="291.2"
   class="st12"
   width="1.9"
   height="2.3"
   id="rect47" />
				<polygon
   class="st12"
   points="348.1,295 349.6,295 350.7,291.2 348.8,291.2     "
   id="polygon49" />
				<polygon
   class="st12"
   points="354.8,282.4 353.2,282.4 353.2,293.4 362.4,293.4 362.4,291.9 354.8,291.9     "
   id="polygon51" />
				<polygon
   class="st12"
   points="363.5,283.8 368.2,283.8 368.2,293.4 369.8,293.4 369.8,283.8 374.5,283.8 374.5,282.4       363.5,282.4     "
   id="polygon53" />
				<path
   class="st12"
   d="M386.9,283.5c-0.6-0.4-1.3-0.7-2-0.9c-0.8-0.2-1.6-0.3-2.5-0.3h-5.7v11.1h5.7c0.6,0,1.2,0,1.7-0.1      c0.5-0.1,1-0.2,1.5-0.4c0.5-0.2,0.9-0.4,1.3-0.7c0.4-0.3,0.7-0.6,1-1.1c0.3-0.4,0.5-0.9,0.6-1.4c0.1-0.5,0.2-1.2,0.2-1.9      c0-1-0.2-1.9-0.5-2.6C388,284.5,387.5,284,386.9,283.5z M387.2,287.9c0,0.8-0.1,1.5-0.3,2c-0.2,0.5-0.5,0.9-0.9,1.2      c-0.4,0.3-0.9,0.5-1.5,0.6c-0.6,0.1-1.3,0.2-2,0.2h-4.1v-8.1h4.1c0.5,0,0.9,0,1.4,0.1c0.4,0.1,0.8,0.1,1.2,0.3      c0.3,0.1,0.7,0.3,0.9,0.5c0.3,0.2,0.5,0.4,0.7,0.7c0.2,0.3,0.3,0.6,0.4,1.1C387.2,286.9,387.2,287.4,387.2,287.9z"
   id="path55" />
				<rect
   x="390.7"
   y="291.2"
   class="st12"
   width="1.9"
   height="2.3"
   id="rect57" />
			</g>
			<path
   class="st12"
   d="M82.4,212.1l-25.5,48.6h6.5l6.5-12.4h31l6.5,12.4h6.5l-25.5-48.6H82.4z M97.9,242.8H72.8l12.6-24     L97.9,242.8z"
   id="path61" />
			<path
   class="st12"
   d="M165.1,216c-1.7-1.3-4-2.2-6.6-2.9c-2.6-0.6-5.9-1-9.6-1h-26.2v48.6h5.9v-18.1h20.3c3.7,0,6.9-0.3,9.6-1     c2.7-0.7,4.9-1.6,6.6-2.9c1.8-1.3,3.1-3,3.9-4.9c0.8-1.9,1.2-4.1,1.2-6.5c0-2.4-0.4-4.6-1.2-6.5     C168.1,218.9,166.8,217.3,165.1,216z M150.2,237.1c-1.4,0-2.8,0-4,0h-17.6v-19.3h17.6c3.2,0,6,0.1,8.3,0.4     c2.3,0.2,4.1,0.7,5.6,1.4c1.4,0.7,2.4,1.6,3.1,2.8c0.7,1.2,1,2.9,1,5c0,1.8-0.3,3.3-0.8,4.4c-0.5,1.1-1.2,2.1-2.1,2.8     c-0.9,0.7-1.9,1.2-3.1,1.6c-1.2,0.4-2.5,0.6-3.8,0.8C153,237.1,151.6,237.1,150.2,237.1z"
   id="path63" />
			<rect
   x="181.8"
   y="212.1"
   class="st12"
   width="5.9"
   height="48.6"
   id="rect65" />
			<path
   class="st12"
   d="M281.3,216c-1.7-1.3-4-2.2-6.6-2.9c-2.6-0.6-5.9-1-9.6-1h-26.2v48.6h5.9v-18.1h20.3c3.7,0,6.9-0.3,9.6-1     c2.7-0.7,4.9-1.6,6.6-2.9c1.8-1.3,3.1-3,3.9-4.9c0.8-1.9,1.2-4.1,1.2-6.5c0-2.4-0.4-4.6-1.2-6.5     C284.4,218.9,283.1,217.3,281.3,216z M266.4,237.1c-1.4,0-2.8,0-4,0h-17.6v-19.3h17.6c3.2,0,6,0.1,8.3,0.4     c2.3,0.2,4.1,0.7,5.6,1.4c1.4,0.7,2.4,1.6,3.1,2.8c0.7,1.2,1,2.9,1,5c0,1.8-0.3,3.3-0.8,4.4c-0.5,1.1-1.2,2.1-2.1,2.8     c-0.9,0.7-1.9,1.2-3.1,1.6c-1.2,0.4-2.5,0.6-3.8,0.8C269.2,237.1,267.8,237.1,266.4,237.1z"
   id="path67" />
			<polygon
   class="st12"
   points="304,212.1 298.1,212.1 298.1,260.8 338.3,260.8 338.3,255.2 304,255.2    "
   id="polygon69" />
			<path
   class="st12"
   d="M391.8,245.5c0,1.4-0.4,2.8-1.1,4.1c-0.8,1.3-1.9,2.4-3.5,3.4c-1.6,1-3.5,1.8-5.9,2.4     c-2.3,0.6-5.1,0.9-8.2,0.9c-3.1,0-5.9-0.3-8.2-0.9c-2.3-0.6-4.3-1.4-5.9-2.4c-1.5-1-2.7-2.1-3.5-3.4c-0.8-1.3-1.1-2.6-1.1-4.1     v-33.4h-5.9v33.1c0,2.5,0.5,4.8,1.6,6.8c1,2,2.6,3.8,4.7,5.3c2.1,1.4,4.6,2.5,7.7,3.3c3,0.8,6.6,1.2,10.6,1.2     c4,0,7.6-0.4,10.6-1.2c3-0.8,5.6-1.9,7.7-3.3c2.1-1.5,3.7-3.2,4.7-5.3v0c1-2,1.6-4.3,1.6-6.8v-33.1h-5.9V245.5z"
   id="path71" />
			<path
   class="st12"
   d="M455.5,243.4c-0.8-1.3-1.9-2.5-3.2-3.5c-1.3-1-2.9-1.9-4.6-2.6c-1.7-0.7-3.6-1.4-5.5-2     c-1.9-0.6-3.9-1.1-5.9-1.6c-2-0.5-4-1-5.9-1.5c-1.9-0.5-3.7-1-5.4-1.6c-1.6-0.5-3.1-1.1-4.3-1.8c-1.2-0.6-2.1-1.4-2.8-2.2     c-0.6-0.7-0.9-1.6-0.9-2.6c0-1.2,0.3-2.3,1-3.2c0.7-0.9,1.8-1.7,3.1-2.3c1.4-0.6,3.2-1.1,5.3-1.4c2.1-0.3,4.6-0.5,7.3-0.5     c2.2,0,4.3,0.1,6.1,0.4c1.8,0.3,3.5,0.6,5,1c1.5,0.4,2.8,0.8,3.9,1.3c1.1,0.5,2.2,0.9,3,1.4l1.2,0.6v-6.8l-0.6-0.2     c-1.5-0.4-3-0.8-4.4-1.1c-1.5-0.3-3-0.7-4.5-0.9c-1.5-0.3-3.1-0.5-4.8-0.6c-3.2-0.3-6.8-0.3-10.4,0c-1.7,0.2-3.4,0.4-5,0.8     c-1.6,0.4-3.2,0.9-4.6,1.5c-1.5,0.6-2.8,1.4-3.8,2.4c-1.1,1-2,2.1-2.6,3.4c-0.6,1.3-1,2.9-1,4.5c0,1.7,0.4,3.3,1.2,4.6     c0.8,1.3,1.9,2.4,3.2,3.4c1.3,1,2.9,1.8,4.6,2.5c1.7,0.7,3.6,1.3,5.5,1.9c1.9,0.6,3.9,1.1,5.9,1.5c2,0.5,4,0.9,5.9,1.4     c1.9,0.5,3.7,1,5.3,1.6c1.6,0.6,3.1,1.2,4.3,1.9c1.2,0.7,2.1,1.5,2.8,2.4c0.6,0.8,0.9,1.8,0.9,2.9c0,1.4-0.4,2.6-1.2,3.6     c-0.8,1-2,1.8-3.6,2.5c-1.6,0.7-3.5,1.2-5.7,1.5c-2.2,0.3-4.7,0.5-7.4,0.5c-3.7,0-7.4-0.3-10.7-1c-3.4-0.7-6.6-1.9-9.6-3.7     l-1.2-0.7v7.2l0.5,0.2c3,1,6.3,1.9,9.6,2.5c3.4,0.6,7.1,0.9,11.3,0.9c1.8,0,3.6-0.1,5.5-0.2c1.9-0.2,3.7-0.4,5.4-0.8     c1.8-0.4,3.4-0.9,5-1.5c1.6-0.7,3-1.5,4.2-2.5c1.2-1,2.2-2.2,2.9-3.6c0.7-1.4,1.1-3.1,1.1-5C456.8,246.3,456.4,244.7,455.5,243.4     z"
   id="path73" />
		</g>
		<g
   id="g106">
			<g
   id="g104">
				
				<g
   id="g102">
					<linearGradient
   id="SVGID_4_"
   gradientUnits="userSpaceOnUse"
   x1="258.9102"
   y1="181.5649"
   x2="278.7729"
   y2="122.6175">
						<stop
   offset="0"
   style="stop-color:#F5F5E1"
   id="stop81" />
						<stop
   offset="1"
   style="stop-color:#C3AA82"
   id="stop83" />
					</linearGradient>
					<path
   style="fill:url(#SVGID_4_);"
   d="M325.1,187.7l-35.2-68.8l0,0c2.9,8-20.5,23.6-47.5,39.1c-2.3,1.3-4.6,2.6-6.9,3.9       c-0.2,0.1-0.4,0.2-0.5,0.3c-2.4,1.3-4.7,2.7-7.1,4c0.3-0.2,0.6-0.3,0.9-0.4c-0.9,0.5-1.9,0.9-2.8,1.4l-37.2,20.5       C231.1,164.3,282.6,164.3,325.1,187.7L325.1,187.7z"
   id="path86" />
					<linearGradient
   id="SVGID_6_"
   gradientUnits="userSpaceOnUse"
   x1="326.7821"
   y1="232.5779"
   x2="215.0769"
   y2="144.4092">
						<stop
   offset="0"
   style="stop-color:#F5F5E1"
   id="stop88" />
						<stop
   offset="0.6179"
   style="stop-color:#C3AA82"
   id="stop90" />
					</linearGradient>
					<path
   style="fill:url(#SVGID_6_);"
   d="M225.9,167.1l-37.2,20.5c42.5-23.4,93.9-23.4,136.4,0l0,0l-17.7-34.6       c-24-6.5-47.7-1.5-64.9,4.8c-4.8,2.8-9.8,5.6-14.7,8.3L225.9,167.1z"
   id="path93" />
					<linearGradient
   id="SVGID_7_"
   gradientUnits="userSpaceOnUse"
   x1="190.6373"
   y1="178.699"
   x2="275.8214"
   y2="73.4715">
						<stop
   offset="0.4829"
   style="stop-color:#41465F"
   id="stop95" />
						<stop
   offset="1"
   style="stop-color:#6973A0"
   id="stop97" />
					</linearGradient>
					<path
   class="st14"
   d="M192.1,185.8c18.1-10.4,101-60.4,82-97.6l-15.4-30.2c-0.4-0.7-1.1-1.1-1.8-1.1l0,0l0,0       c-0.8,0-1.5,0.4-1.8,1.1l-66.4,129.7C189.8,187.1,190.9,186.4,192.1,185.8z"
   id="path100" />
				</g>
			</g>
		</g>
	</g>
</g>
<g
   id="Clear_space"
   class="st0">
	<g
   class="st3"
   id="g123">
		<path
   class="st22"
   d="M25.5,212.1L0,260.8h6.5l6.5-12.4h31l6.5,12.4h6.5l-25.5-48.6H25.5z M41,242.8H15.9l12.6-24L41,242.8z"
   id="path111" />
		<path
   class="st22"
   d="M181.1,318.9l-48.6-25.5v6.5l12.4,6.5v31l-12.4,6.5v6.5l48.6-25.5V318.9z M150.4,334.4v-25.1l24,12.6    L150.4,334.4z"
   id="path113" />
		<rect
   class="st23"
   width="56.9"
   height="350.4"
   id="rect115" />
		<rect
   x="456.8"
   class="st23"
   width="56.9"
   height="350.4"
   id="rect117" />
		
			<rect
   x="228.4"
   y="-228.4"
   transform="matrix(6.123234e-17 -1 1 6.123234e-17 228.388 285.3145)"
   class="st23"
   width="56.9"
   height="513.7"
   id="rect119" />
		
			<rect
   x="228.4"
   y="65"
   transform="matrix(6.123234e-17 -1 1 6.123234e-17 -65.0443 578.7468)"
   class="st23"
   width="56.9"
   height="513.7"
   id="rect121" />
	</g>
</g>
</svg>