<svg width="300" height="44" viewBox="0 0 300 44" fill="none" xmlns="http://www.w3.org/2000/svg">
<path d="M47.9651 44L35.587 20.8563C36.6068 23.5474 28.3782 28.7951 18.8836 34.0092C18.0748 34.4465 17.266 34.8838 16.4572 35.3211C16.3869 35.3547 16.3166 35.3884 16.2814 35.422C15.4374 35.8593 14.6286 36.3303 13.7847 36.7676C13.8902 36.7003 13.9957 36.6667 14.1012 36.633C13.7847 36.8012 13.433 36.9358 13.1166 37.104L0.0351562 44C14.91 36.1284 33.02 36.1284 47.9651 44Z" fill="url(#paint0_linear)"/>
<path d="M13.0814 37.0704L0 43.9664C14.9451 36.0948 33.02 36.0948 47.9651 43.9664L41.7409 32.3273C33.3013 30.1407 24.9672 31.8227 18.9188 33.9419C17.2309 34.8838 15.4726 35.8257 13.7495 36.734L13.0814 37.0704Z" fill="url(#paint1_linear)"/>
<path d="M1.19561 43.3609C7.56049 39.8624 36.7123 23.0428 30.0309 10.5291L24.6155 0.37003C24.4749 0.134556 24.2287 0 23.9826 0C23.7012 0 23.4551 0.134556 23.3496 0.37003L0 44C0.386815 43.7982 0.773634 43.5627 1.19561 43.3609Z" fill="url(#paint2_linear)"/>
<path d="M92.0925 11.2718L81 32.4138H83.8275L86.655 27.0195H100.14L102.968 32.4138H105.795L94.7025 11.2718H92.0925ZM98.835 24.6269H87.9165L93.3975 14.1864L98.835 24.6269Z" fill="#F1F2E0"/>
<path d="M128.067 12.9684C127.327 12.4028 126.327 12.0113 125.196 11.7068C124.065 11.4458 122.629 11.2718 121.02 11.2718H109.623V32.4138H112.189V24.5399H121.02C122.629 24.5399 124.021 24.4094 125.196 24.1049C126.37 23.8004 127.327 23.4089 128.067 22.8433C128.85 22.2778 129.415 21.5383 129.763 20.7117C130.111 19.8852 130.285 18.9281 130.285 17.8841C130.285 16.8401 130.111 15.883 129.763 15.0565C129.372 14.2299 128.806 13.5339 128.067 12.9684ZM121.585 22.1473C120.976 22.1473 120.367 22.1473 119.845 22.1473H112.189V13.7514H119.845C121.237 13.7514 122.455 13.7949 123.456 13.9254C124.456 14.0124 125.239 14.2299 125.892 14.5344C126.501 14.839 126.936 15.2305 127.24 15.7525C127.545 16.2745 127.675 17.0141 127.675 17.9276C127.675 18.7106 127.545 19.3632 127.327 19.8417C127.11 20.3202 126.805 20.7552 126.414 21.0598C126.022 21.3643 125.587 21.5818 125.065 21.7558C124.543 21.9298 123.978 22.0168 123.412 22.1038C122.803 22.1473 122.194 22.1473 121.585 22.1473Z" fill="#F1F2E0"/>
<path d="M137.898 11.2718H135.331V32.4138H137.898V11.2718Z" fill="#F1F2E0"/>
<path d="M178.614 12.9684C177.874 12.4028 176.874 12.0113 175.743 11.7068C174.612 11.4458 173.176 11.2718 171.567 11.2718H160.17V32.4138H162.736V24.5399H171.567C173.176 24.5399 174.568 24.4094 175.743 24.1049C176.917 23.8004 177.874 23.4089 178.614 22.8433C179.397 22.2778 179.962 21.5383 180.31 20.7117C180.658 19.8852 180.832 18.9281 180.832 17.8841C180.832 16.8401 180.658 15.883 180.31 15.0565C179.962 14.2299 179.397 13.5339 178.614 12.9684ZM172.132 22.1473C171.523 22.1473 170.914 22.1473 170.392 22.1473H162.736V13.7514H170.392C171.784 13.7514 173.002 13.7949 174.003 13.9254C175.003 14.0124 175.786 14.2299 176.439 14.5344C177.048 14.839 177.483 15.2305 177.787 15.7525C178.092 16.2745 178.222 17.0141 178.222 17.9276C178.222 18.7106 178.092 19.3632 177.874 19.8417C177.657 20.3202 177.352 20.7552 176.961 21.0598C176.569 21.3643 176.134 21.5818 175.612 21.7558C175.09 21.9298 174.525 22.0168 173.959 22.1038C173.35 22.1473 172.741 22.1473 172.132 22.1473Z" fill="#F1F2E0"/>
<path d="M188.488 11.2718H185.922V32.4573H203.409V30.0212H188.488V11.2718Z" fill="#F1F2E0"/>
<path d="M226.682 25.8015C226.682 26.4105 226.508 27.0196 226.203 27.5851C225.855 28.1506 225.377 28.6291 224.681 29.0642C223.985 29.4992 223.158 29.8472 222.114 30.1082C221.114 30.3692 219.896 30.4997 218.547 30.4997C217.199 30.4997 215.981 30.3692 214.98 30.1082C213.98 29.8472 213.11 29.4992 212.414 29.0642C211.761 28.6291 211.239 28.1506 210.891 27.5851C210.543 27.0196 210.413 26.454 210.413 25.8015V11.2718H207.846V25.671C207.846 26.7585 208.064 27.7591 208.542 28.6291C208.977 29.4992 209.673 30.2822 210.587 30.9347C211.5 31.5438 212.588 32.0223 213.936 32.3703C215.241 32.7183 216.807 32.8923 218.547 32.8923C220.287 32.8923 221.853 32.7183 223.158 32.3703C224.463 32.0223 225.594 31.5438 226.508 30.9347C227.421 30.2822 228.117 29.5427 228.552 28.6291C228.987 27.7591 229.248 26.7585 229.248 25.671V11.2718H226.682V25.8015Z" fill="#F1F2E0"/>
<path d="M254.391 24.8881C254.043 24.3225 253.564 23.8005 252.999 23.3655C252.433 22.9305 251.737 22.539 250.998 22.2344C250.258 21.9299 249.432 21.6254 248.605 21.3644C247.779 21.1034 246.909 20.8859 246.039 20.6684C245.169 20.4508 244.299 20.2333 243.472 20.0158C242.646 19.7983 241.863 19.5808 241.123 19.3198C240.427 19.1023 239.775 18.8413 239.253 18.5368C238.731 18.2757 238.339 17.9277 238.035 17.5797C237.774 17.2752 237.643 16.8837 237.643 16.4486C237.643 15.9266 237.774 15.4481 238.078 15.0566C238.383 14.6651 238.861 14.317 239.427 14.056C240.036 13.795 240.819 13.5775 241.732 13.447C242.646 13.3165 243.733 13.2295 244.908 13.2295C245.865 13.2295 246.778 13.273 247.561 13.4035C248.344 13.534 249.084 13.6645 249.736 13.8385C250.389 14.0125 250.954 14.1865 251.433 14.404C251.911 14.6216 252.39 14.7956 252.738 15.0131L253.26 15.2741V12.3159L252.999 12.2289C252.346 12.0549 251.694 11.8809 251.085 11.7504C250.432 11.6199 249.78 11.4459 249.127 11.3589C248.475 11.2284 247.779 11.1414 247.039 11.0979C245.647 10.9674 244.081 10.9674 242.515 11.0979C241.776 11.1849 241.036 11.2719 240.34 11.4459C239.644 11.6199 238.948 11.8374 238.339 12.0984C237.687 12.3594 237.121 12.7075 236.686 13.1425C236.208 13.5775 235.816 14.056 235.555 14.6216C235.294 15.1871 235.12 15.8831 235.12 16.5792C235.12 17.3187 235.294 18.0147 235.642 18.5803C235.99 19.1458 236.469 19.6243 237.034 20.0593C237.6 20.4944 238.296 20.8424 239.035 21.1469C239.775 21.4514 240.601 21.7124 241.428 21.9734C242.254 22.2344 243.124 22.4519 243.994 22.626C244.864 22.8435 245.734 23.0175 246.561 23.235C247.387 23.4525 248.17 23.67 248.866 23.931C249.562 24.192 250.215 24.453 250.737 24.7576C251.259 25.0621 251.65 25.4101 251.955 25.8016C252.216 26.1496 252.346 26.5846 252.346 27.0632C252.346 27.6722 252.172 28.1942 251.824 28.6293C251.476 29.0643 250.954 29.4123 250.258 29.7168C249.562 30.0213 248.736 30.2388 247.779 30.3693C246.822 30.4998 245.734 30.5868 244.56 30.5868C242.95 30.5868 241.341 30.4563 239.905 30.1518C238.426 29.8473 237.034 29.3253 235.729 28.5422L235.207 28.2377V31.3699L235.425 31.4569C236.73 31.8919 238.165 32.2834 239.601 32.5444C241.08 32.8055 242.689 32.936 244.516 32.936C245.299 32.936 246.082 32.8925 246.909 32.849C247.735 32.762 248.518 32.675 249.258 32.5009C250.041 32.3269 250.737 32.1094 251.433 31.8484C252.129 31.5439 252.738 31.1959 253.26 30.7609C253.782 30.3258 254.217 29.8038 254.521 29.1948C254.826 28.5858 255 27.8462 255 27.0197C254.956 26.1496 254.782 25.4536 254.391 24.8881Z" fill="#F1F2E0"/>
<defs>
<linearGradient id="paint0_linear" x1="24.6894" y1="41.9362" x2="31.137" y2="21.9336" gradientUnits="userSpaceOnUse">
<stop stop-color="#F5F5E1"/>
<stop offset="1" stop-color="#C3AA82"/>
</linearGradient>
<linearGradient id="paint1_linear" x1="48.5566" y1="59.0966" x2="10.6263" y2="27.8002" gradientUnits="userSpaceOnUse">
<stop stop-color="#F5F5E1"/>
<stop offset="0.6179" stop-color="#C3AA82"/>
</linearGradient>
<linearGradient id="paint2_linear" x1="0.681253" y1="40.9721" x2="29.0464" y2="4.34335" gradientUnits="userSpaceOnUse">
<stop offset="0.4829" stop-color="#41465F"/>
<stop offset="1" stop-color="#6973A0"/>
</linearGradient>
</defs>
</svg>
